<svg xmlns="http://www.w3.org/2000/svg" xmlns:xlink="http://www.w3.org/1999/xlink" xmlns:inkscape="http://www.inkscape.org/namespaces/inkscape" version="1.1" width="1530.71" height="2267.72" viewBox="0 0 1530.71 2267.72">
<defs>
<clipPath id="clip_1">
<path transform="matrix(1,0,0,-1,0,2267.72)" d="M0 2267.72H1530.71V0H0Z"/>
</clipPath>
</defs>
<g inkscape:groupmode="layer" inkscape:label="&#x56FE;&#x5C42; 1">
<path transform="matrix(1,0,0,-1,902.5352,979.80349)" d="M0 0H8.996L24.615-16.55 27.76 0H39.775L34.76-29.707H25.955L10.277-13.534 7.082-29.707H-5.193Z" fill="#fabe00" fill-rule="evenodd"/>
<path transform="matrix(1,0,0,-1,834.9805,1001.2634)" d="M0 0H10.959L9.52-8.247H-1.439Z" fill="#fabe00" fill-rule="evenodd"/>
<path transform="matrix(1,0,0,-1,802.2227,979.80349)" d="M0 0H32.229L31.104-6.352H11.969L10.607-14.348H28.037L26.986-20.319H9.545L7.848-29.707H-5.254Z" fill="#fabe00" fill-rule="evenodd"/>
<g clip-path="url(#clip_1)">
<path transform="matrix(1,0,0,-1,779.4668,994.71267)" d="M0 0V0C-.687-3.974-2.848-6.237-6.26-7.308-8.418-7.995-11.02-8.183-14.135-8.06L-11.252 8.178C-10.383 8.235-9.557 8.235-8.752 8.235-2.832 8.235 1.158 6.861 0 0M-8.111 14.909H-23.103L-28.349-14.798H-12.055C-9.729-14.798-7.408-14.728-5.107-14.476 3.801-13.534 11.813-10.133 13.123 .187 14.832 13.903 1.635 14.909-8.111 14.909" fill="#fabe00" fill-rule="evenodd"/>
<path transform="matrix(1,0,0,-1,705.3525,979.80349)" d="M0 0H14.358L19.991-8.118 29.083 0H43.308L27.211-14.663 39.304-29.707H24.651L17.92-21.08 7.968-29.707H-6.577L10.713-14.225Z" fill="#fabe00" fill-rule="evenodd"/>
<path transform="matrix(1,0,0,-1,885.2402,999.3855)" d="M0 0 5.66-6.358C-2.924-12.295-16.275-13.412-24.893-8.505-35.254-2.627-34.471 10.648-25.488 16.541-15.986 22.782 .113 22.729 8.99 15.064L.971 9.984C-2.992 13.786-10.283 14.584-15.773 11.084-20.369 7.961-21.25 .682-14.891-2.261-10.328-4.34-3.551-3.188 0 0" fill="#fabe00" fill-rule="evenodd"/>
<path transform="matrix(1,0,0,-1,705.8457,969.199)" d="M0 0H25.504L42.335 39.602H16.836Z" fill="#006d3b"/>
<path transform="matrix(1,0,0,-1,804.2441,929.5974)" d="M0 0 7.404-39.602H32.391L24.982 0Z" fill="#006d3b"/>
<path transform="matrix(1,0,0,-1,569.7554,927.94998)" d="M0 0-9.424-41.249H7.918L17.328 0Z" fill="#006d3b"/>
<path transform="matrix(1,0,0,-1,616.9414,969.199)" d="M0 0H17.341L22.08 41.249H4.741Z" fill="#006d3b"/>
<path transform="matrix(1,0,0,-1,624.833,870.62429)" d="M0 0H26.129L28.026 11.195H2.042L3.919 21.488H-17.548L-19.437 11.195H-45.875L-47.759 0H-21.478Z" fill="#006d3b"/>
<path transform="matrix(1,0,0,-1,918.4609,863.76199)" d="M0 0H-26.023L-27.645-9.894H-157.365L-153.178-.205H-178.629L-182.821-9.894H-239.837C-239.442-7.576-239.176-6.041-239.081-5.482-238.163-.171-236 .975-231.891 .975H-200.087L-198.072 12.764H-246.452C-253.68 12.764-257.734 9.361-259.149 .863-259.434-.872-261.17-11.157-263.461-24.718H-279.439L-274.349-12.606H-295.073L-298.507-20.788H-313.829L-314.548-12.606H-334L-332.939-24.718H-349.035L-350.922-35.908H-320.037L-321.54-44.652H-347.811L-349.701-55.841H-323.454L-331.926-105.437H-310.461L-301.975-55.841H-275.817L-273.909-44.652H-300.062L-298.569-35.908H-265.356C-270.549-66.675-277.116-105.437-277.116-105.437H-256.062C-256.062-105.437-247.025-52.238-242.12-23.363H-231.454L-252.053-145.737H-231.281L-210.666-23.363H-188.627L-203.076-56.853H-153.463L-161.72-105.437H-134.437L-126.176-56.853H-80.328L-77.16-43.352H-123.881L-122.016-32.31H-149.297L-151.166-43.352H-171.785L-163.173-23.363H-63.133L-81.826-105.437H-54.898L-42.361-50.415H6.857C6.857-50.415 1.824-82.787 1.254-85.708 .508-89.568-.998-92.227-6.852-92.227H-25.6L-27.846-105.437H11.918C18.898-105.437 26.355-102.524 27.855-93.16 29.227-84.491 37.201-36.947 37.201-36.947H-39.297L-36.213-23.363H47.084L49.375-9.894H-1.607Z" fill="#006d3b"/>
<path transform="matrix(1,0,0,-1,981.1172,855.9387)" d="M0 0H-1.975V4.459H-.34C.707 4.459 1.471 4.289 1.955 3.948 2.439 3.609 2.682 3.043 2.682 2.249 2.682 1.5 2.457 .937 2.008 .563 1.559 .188 .891 0 0 0M2.576-1.942C2.201-1.527 1.826-1.268 1.451-1.164 2.523-.945 3.355-.513 3.949 .13 4.541 .776 4.838 1.56 4.838 2.484 4.838 3.644 4.402 4.546 3.529 5.191 2.658 5.835 1.447 6.159-.104 6.159H-3.975V-7.257H-1.975V-1.673H-.758C-.33-1.673 .074-1.869 .459-2.262 .84-2.654 1.207-3.242 1.557-4.027L2.971-7.257H5.402L3.662-3.66C3.313-2.929 2.951-2.356 2.576-1.942" fill="#006d3b"/>
<path transform="matrix(1,0,0,-1,987.916,863.1814)" d="M0 0C-1.805-1.806-3.998-2.708-6.576-2.708-9.146-2.708-11.34-1.808-13.154-.007-14.965 1.792-15.873 3.987-15.873 6.576-15.873 9.166-14.965 11.362-13.154 13.166-11.34 14.971-9.146 15.873-6.576 15.873-4.004 15.873-1.814 14.968-.006 13.159 1.803 11.352 2.707 9.157 2.707 6.576 2.707 3.995 1.807 1.803 0 0M.93 14.068C-1.137 16.126-3.635 17.154-6.564 17.154-9.518 17.154-12.027 16.126-14.094 14.068-16.16 12.011-17.193 9.514-17.193 6.576-17.193 3.64-16.164 1.141-14.107-.917-12.051-2.973-9.541-4.002-6.576-4.002-3.639-4.002-1.137-2.973 .93-.917 2.996 1.141 4.029 3.64 4.029 6.576 4.029 9.514 2.996 12.011 .93 14.068" fill="#006d3b"/>
</g>
</g>
</svg>
